/* XPM */
static const char * wmbiff_master_xpm[] = {
"160 100 13 1",
" 	c #0000FF",
".	c #202020",
"X	c #FFFF00",
"o	c #494100",
"O	c #797908",
"+	c #000000",
"@	c #C7C3C7",
"$	c #20B2AE",
"&	c #B60418",
"*	c #00EB00",
"=	c #283C38",
"-	c #F7F3FF",
";	c #71E371",
"                                                                ................................................................................                ",
"                                                                ...XXX...oooO.OXXXO.OXXXO.OoooO.OXXXO.OXXXO.OXXXO.OXXXO.OXXXO...................                ",
"                                                                ..X...X.o...X.o...X.o...X.X...X.X...o.X...o.o...X.X...X.X...X............X......                ",
"                                                                ..X...X.o...X.o...X.o...X.X...X.X...o.X...o.o...X.X...X.X...X..X....X....X......                ",
"    ++++++++++++++++++++++++++++++++++++++++++++++++++++++++    ..OoooO..oooO.OXXXO..XXXO.OXXXO.OXXXO.OXXXO..oooO.oXXXo.OXXXO..O....O...X.......                ",
"    +......................................................@    ..X...X.o...X.X...o.o...X.o...X.o...X.X...X.o...X.X...X.o...X...........X.......                ",
"    +......................................................@    ..X...X.o...X.X...o.o...X.o...X.o...X.X...X.o...X.X...X.o...X..X....X..X........                ",
"    +......................................................@    ...XXX...oooX.OXXXO.OXXXO..oooO.OXXXO.OXXXO..oooO.OXXXO.OXXXO..O....O..X........                ",
"    +......................................................@    ................................................................................                ",
"    +......................................................@    .                                                                                               ",
"    +......................................................@    .                                                                                               ",
"    +......................................................@    .                                                                                               ",
"    +......................................................@    .                                                                                               ",
"    +......................................................@    .                                                                                               ",
"    +......................................................@    .                                                                                               ",
"    +......................................................@    .                                                                                               ",
"    +......................................................@    .                                                                                               ",
"    +......................................................@    .                                                                                               ",
"    +......................................................@    .                                                                                               ",
"    +......................................................@    .                                                                                               ",
"    +......................................................@    .                                                                                               ",
"    +......................................................@    .                                                                                               ",
"    +......................................................@    .                                                                                               ",
"    +......................................................@    .                                                                                               ",
"    +......................................................@    .                                                                                               ",
"    +......................................................@    .                                                                                               ",
"    +......................................................@    .                                                                                               ",
"    +......................................................@    .                                                                                               ",
"    +......................................................@    .                                                                                               ",
"    +......................................................@    .                                                                                               ",
"    +......................................................@    .                                                                                               ",
"    +......................................................@    .                                                                                               ",
"    +......................................................@    .                                                                                               ",
"    +......................................................@    .                                                                                               ",
"    +......................................................@    .                                                                                               ",
"    +......................................................@    .                                                                                               ",
"    +......................................................@    .                                                                                               ",
"    +......................................................@    .                                                                                               ",
"    +......................................................@    .                                                                                               ",
"    +......................................................@    .                                                                                               ",
"    +......................................................@    .                                                                                               ",
"    +......................................................@    .                                                                                               ",
"    +......................................................@    .                                                                                               ",
"    +......................................................@    .                                                                                               ",
"    +......................................................@    .                                                                                               ",
"    +......................................................@    .                                                                                               ",
"    +......................................................@    .                                                                                               ",
"    +......................................................@    .                                                                                               ",
"    +......................................................@    .                                                                                               ",
"    +......................................................@    .                                                                                               ",
"    +......................................................@    .                                                                                               ",
"    +......................................................@    .                                                                                               ",
"    +......................................................@    .                                                                                               ",
"    +......................................................@    .                                                                                               ",
"    +......................................................@    .                                                                                               ",
"    +......................................................@    .                                                                                               ",
"    +......................................................@    .                                                                                               ",
"    +......................................................@    .                                                                                               ",
"    +......................................................@    .                                                                                               ",
"    @@@@@@@@@@@@@@@@@@@@@@@@@@@@@@@@@@@@@@@@@@@@@@@@@@@@@@@@    .                                                                                               ",
"                                                                .                                                                                               ",
"                                                                .                                                                                               ",
"                                                                .                                                                                               ",
"                                                                .                                                                                               ",
"...............................................................................                                                                                 ",
"..$$$......$.$$$$$.$$$$$.$...$.$$$$$.$$$$$.$$$$$..$$$..$$$$$...................                                                                                 ",
".$...$.....$.....$.....$.$...$.$.....$.........$.$...$.$...$............$......  .&&.  .**.  .==.                                                               ",
".$...$.....$.....$.....$.$...$.$.....$.........$.$...$.$...$..$....$....$......  &-&&  *-**  ====                                                               ",
".$...$.....$.$$$$$..$$$$.$$$$$.$$$$$.$$$$$.....$..$$$..$$$$$..$....$...$.......  &&&&  ****  ====   .$.;                                                        ",
".$...$.....$.$.........$.....$.....$.$...$.....$.$...$.....$...........$.......  .&&.  .**.  .==.                                                               ",
".$...$.....$.$.........$.....$.....$.$...$.....$.$...$.....$..$....$..$........                                                                                 ",
"..$$$......$.$$$$$.$$$$$.....$.$$$$$.$$$$$.....$..$$$..$$$$$..$....$..$........                                                                                 ",
"...............................................................................                                                                                 ",
"                                                                                                                                                                ",
"................................................................................................................................................................",
"..$$$..$$$$..$$$$$.$$$$..$$$$$.$$$$$.$$$$$.$...$...$.......$.$...$.$.....$...$.$$$$..$$$$$.$$$$$.$$$$$.$$$$$.$$$$$.$$$$$.$...$.$...$.$...$.$...$.$...$.$$$$$....",
".$...$.$...$.$.....$...$.$.....$.....$.....$...$...$.......$.$...$.$.....$$.$$.$...$.$...$.$...$.$...$.$...$.$.......$...$...$.$...$.$...$.$...$.$...$.....$....",
".$...$.$...$.$.....$...$.$.....$.....$.....$...$...$.......$.$..$..$.....$.$.$.$...$.$...$.$...$.$...$.$...$.$.......$...$...$.$...$.$...$..$.$..$...$....$.....",
".$$$$$.$$$$..$.....$...$.$$$$..$$$$..$.$$$.$$$$$...$.......$.$$$...$.....$...$.$...$.$...$.$$$$$.$$..$.$$$$..$$$$$...$...$...$.$...$.$...$...$...$$$$$...$......",
".$...$.$...$.$.....$...$.$.....$.....$...$.$...$...$.......$.$..$..$.....$...$.$...$.$...$.$.....$.$.$.$...$.....$...$...$...$.$...$.$.$.$..$.$......$..$.......",
".$...$.$...$.$.....$...$.$.....$.....$...$.$...$...$...$...$.$...$.$.....$...$.$...$.$...$.$.....$..$$.$...$.....$...$...$...$.$...$.$$.$$.$...$.....$.$........",
".$...$.$$$$..$$$$$.$$$$..$$$$$.$.....$$$$$.$...$...$....$$$..$...$.$$$$..$...$.$...$.$$$$$.$.....$$$$$.$...$.$$$$$...$....$$$$..$$$..$...$.$...$..$$$..$$$$$....",
"................................................................................................................................................................",
"                                                                                                                                                                ",
"    +......................................................@    .                                                                                               ",
"     ......................................................                                                                                                     ",
"     ......................................................                                                                                                     ",
"     ......................................................                                                                                                     ",
"     ......................................................                                                                                                     ",
"     ......................................................                                                                                                     ",
"     ......................................................                                                                                                     ",
"     ......................................................                                                                                                     ",
"     ......................................................                                                                                                     ",
"     ......................................................                                                                                                     ",
"                                                                                                                                                                ",
"                                                                                                                                                                ",
"                                                                                                                                                                ",
"                                                                                                                                                                ",
"                                                                                                                                                                ",
"                                                                                                                                                                "};
